<svg width="468" height="468" viewBox="0 0 468 468" fill="none" xmlns="http://www.w3.org/2000/svg">
<g clip-path="url(#clip0_119_820)">
<path d="M468 0H0V468H468V0Z" fill="white"/>
<path d="M96 408H60V372H96V408Z" fill="black"/>
<path fill-rule="evenodd" clip-rule="evenodd" d="M120 432H36V348H120V432ZM48 420H108V360H48V420Z" fill="black"/>
<path d="M144 432H132V420H144V432Z" fill="black"/>
<path d="M204 432H192V420H204V432Z" fill="black"/>
<path d="M228 432H216V420H228V432Z" fill="black"/>
<path d="M360 360H348V348H360V360Z" fill="black"/>
<path fill-rule="evenodd" clip-rule="evenodd" d="M360 192H348V216H336V228H348V216H360V240H372V252H348V240H336V252H348V276H336V288H348V300H336V324H372V288H384V312H396V324H384V336H396V348H384V372H396V384H384V396H396V384H408V408H384V432H372V384H336V396H348V408H324V396H312V408H324V420H312V432H252V420H276V408H252V420H228V408H204V384H228V372H240V408H252V372H240V360H252V348H240V300H264V312H276V324H252V336H264V372H276V324H288V312H300V300H312V324H300V336H312V324H324V288H312V276H324V240H312V228H324V204H336V192H324V180H348V168H360V192ZM288 408H300V372H288V408ZM312 384H324V372H312V384ZM336 372H372V336H336V372ZM288 360H300V348H288V360Z" fill="black"/>
<path d="M336 432H324V420H336V432Z" fill="black"/>
<path d="M420 420H432V432H396V420H408V408H420V420Z" fill="black"/>
<path d="M156 360H168V372H180V384H168V396H180V408H156V420H144V408H132V396H144V384H156V372H144V348H132V324H120V312H156V360Z" fill="black"/>
<path d="M192 420H180V408H192V420Z" fill="black"/>
<path d="M432 408H420V396H432V408Z" fill="black"/>
<path d="M144 384H132V372H144V384Z" fill="black"/>
<path d="M420 384H408V372H420V384Z" fill="black"/>
<path d="M228 348H216V360H228V372H180V360H204V336H228V348Z" fill="black"/>
<path d="M240 360H228V348H240V360Z" fill="black"/>
<path d="M432 360H396V348H408V336H432V360Z" fill="black"/>
<path d="M48 336H36V324H48V336Z" fill="black"/>
<path d="M120 336H84V324H120V336Z" fill="black"/>
<path d="M228 324H192V336H180V312H228V324Z" fill="black"/>
<path d="M408 336H396V324H408V336Z" fill="black"/>
<path d="M72 216H84V204H120V216H96V228H72V240H84V264H72V312H84V324H48V312H60V288H36V264H48V276H60V252H48V228H60V204H72V216Z" fill="black"/>
<path d="M48 312H36V300H48V312Z" fill="black"/>
<path d="M120 312H108V300H120V312Z" fill="black"/>
<path d="M192 264H180V276H168V288H180V312H168V300H120V288H156V264H168V252H192V264Z" fill="black"/>
<path d="M360 312H348V300H360V312Z" fill="black"/>
<path d="M432 276H420V288H432V312H408V264H420V252H408V240H432V276Z" fill="black"/>
<path d="M144 264H132V276H120V264H108V276H120V288H108V300H84V288H96V252H144V264Z" fill="black"/>
<path d="M228 300H192V288H228V300Z" fill="black"/>
<path d="M276 300H264V288H276V300Z" fill="black"/>
<path d="M300 300H288V288H300V300Z" fill="black"/>
<path d="M192 288H180V276H192V288Z" fill="black"/>
<path d="M396 288H384V276H396V288Z" fill="black"/>
<path d="M204 276H192V264H204V276Z" fill="black"/>
<path fill-rule="evenodd" clip-rule="evenodd" d="M192 96H204V108H192V132H204V156H192V144H180V168H204V156H216V144H228V156H240V168H216V180H240V168H252V156H264V180H276V168H300V180H288V192H300V204H288V216H300V240H288V252H276V240H264V228H276V216H264V204H252V240H240V252H252V264H240V276H216V264H228V240H216V228H228V216H216V228H180V216H168V228H156V216H144V204H156V192H168V204H180V180H156V156H168V144H156V156H144V132H156V108H168V120H180V108H168V96H156V84H192V96ZM204 216H216V204H204V216ZM192 204H204V180H192V204ZM240 192H252V180H240V192Z" fill="black"/>
<path d="M384 276H360V264H384V276Z" fill="black"/>
<path d="M300 264H288V252H300V264Z" fill="black"/>
<path d="M408 264H396V252H408V264Z" fill="black"/>
<path d="M168 252H144V240H168V252Z" fill="black"/>
<path d="M120 240H96V228H120V240Z" fill="black"/>
<path d="M144 228H120V216H144V228Z" fill="black"/>
<path d="M372 204H384V216H408V204H420V192H432V216H420V228H372V216H360V192H372V204Z" fill="black"/>
<path d="M60 204H48V216H36V192H60V204Z" fill="black"/>
<path d="M312 216H300V204H312V216Z" fill="black"/>
<path d="M120 168H108V180H132V192H144V204H120V192H84V180H96V156H120V168Z" fill="black"/>
<path d="M324 204H312V192H324V204Z" fill="black"/>
<path d="M408 204H396V192H408V204Z" fill="black"/>
<path d="M156 192H144V180H156V192Z" fill="black"/>
<path d="M312 192H300V180H312V192Z" fill="black"/>
<path d="M396 192H384V180H396V192Z" fill="black"/>
<path d="M432 180H420V192H408V168H432V180Z" fill="black"/>
<path d="M48 144H60V156H84V180H36V132H48V144Z" fill="black"/>
<path d="M144 180H132V156H144V180Z" fill="black"/>
<path d="M324 180H312V168H324V180Z" fill="black"/>
<path d="M384 180H372V168H384V180Z" fill="black"/>
<path d="M312 132H300V144H312V168H300V156H276V132H288V120H300V108H312V132Z" fill="black"/>
<path d="M336 144H372V168H360V156H348V168H336V156H324V108H336V144Z" fill="black"/>
<path d="M408 168H396V156H408V168Z" fill="black"/>
<path d="M132 156H120V144H132V156Z" fill="black"/>
<path d="M288 60H264V96H276V72H288V84H336V96H324V108H312V96H300V108H288V120H276V108H264V120H276V132H252V156H240V144H228V132H240V120H252V96H240V120H228V108H216V96H228V60H252V48H228V36H288V60Z" fill="black"/>
<path d="M420 144H432V156H408V132H420V144Z" fill="black"/>
<path d="M72 144H60V132H72V144Z" fill="black"/>
<path d="M96 144H84V132H96V144Z" fill="black"/>
<path d="M120 144H108V132H120V144Z" fill="black"/>
<path d="M384 144H372V132H384V144Z" fill="black"/>
<path d="M216 120H228V132H204V108H216V120Z" fill="black"/>
<path d="M96 96H60V60H96V96Z" fill="black"/>
<path fill-rule="evenodd" clip-rule="evenodd" d="M120 120H36V36H120V120ZM48 108H108V48H48V108Z" fill="black"/>
<path d="M144 120H132V108H144V120Z" fill="black"/>
<path d="M408 96H372V60H408V96Z" fill="black"/>
<path fill-rule="evenodd" clip-rule="evenodd" d="M432 120H348V36H432V120ZM360 108H420V48H360V108Z" fill="black"/>
<path d="M156 108H144V96H156V108Z" fill="black"/>
<path d="M144 96H132V84H144V96Z" fill="black"/>
<path d="M216 96H204V84H192V60H204V48H192V36H216V96Z" fill="black"/>
<path d="M156 84H144V60H156V84Z" fill="black"/>
<path d="M168 48H180V72H168V60H156V36H168V48Z" fill="black"/>
<path d="M144 60H132V48H144V60Z" fill="black"/>
<path d="M324 60H300V36H324V60Z" fill="black"/>
</g>
<defs>
<clipPath id="clip0_119_820">
<rect width="468" height="468" fill="white"/>
</clipPath>
</defs>
</svg>
